<?xml version="1.0" standalone="no"?>
<!DOCTYPE svg PUBLIC "-//W3C//DTD SVG 20010904//EN"
 "http://www.w3.org/TR/2001/REC-SVG-20010904/DTD/svg10.dtd">
<svg version="1.0" xmlns="http://www.w3.org/2000/svg"
 width="16.000000pt" height="16.000000pt" viewBox="0 0 16.000000 16.000000"
 preserveAspectRatio="xMidYMid meet">
<metadata>
Created by potrace 1.11, written by Peter Selinger 2001-2013
</metadata>
<g transform="translate(0.000000,16.000000) scale(0.002759,-0.002759)"
fill="#000000" stroke="none">
<path d="M2343 5664 c3 -6 2 -16 -3 -24 -7 -12 -12 -11 -30 5 -12 11 -21 15
-20 10 2 -6 2 -17 1 -25 -1 -12 -5 -11 -18 5 -14 18 -15 18 -9 1 5 -15 2 -17
-15 -13 -15 4 -23 0 -26 -14 -3 -10 -12 -19 -19 -19 -13 0 -19 -20 -15 -44 1
-5 -6 -3 -15 5 -15 12 -17 12 -9 0 6 -11 4 -13 -10 -7 -15 5 -16 4 -5 -9 7 -8
17 -12 23 -8 6 3 7 1 3 -6 -4 -6 -12 -9 -17 -6 -8 5 -14 -23 -10 -47 0 -4 -8
-12 -19 -18 -11 -6 -20 -15 -20 -21 0 -6 6 -7 13 -3 10 6 10 4 0 -7 -7 -7 -13
-24 -13 -37 0 -16 -4 -21 -12 -16 -10 6 -10 4 -2 -7 16 -20 14 -51 -3 -45 -8
3 -11 1 -8 -4 3 -6 0 -10 -7 -10 -10 0 -10 -2 1 -9 7 -5 9 -11 4 -14 -10 -7
-10 -67 1 -85 4 -7 4 -12 -1 -12 -11 0 -9 -127 2 -137 4 -5 5 -3 1 4 -3 6 -2
15 4 18 6 4 8 15 5 26 -4 10 -2 19 3 19 12 0 12 -32 -1 -47 -6 -9 -5 -13 4
-13 8 -1 3 -7 -11 -15 -14 -8 -19 -14 -12 -15 7 0 11 -4 7 -9 -3 -6 3 -15 12
-21 15 -10 15 -11 1 -6 -26 8 -29 -5 -6 -25 11 -11 17 -19 12 -19 -6 0 -14 4
-20 10 -6 6 -10 0 -9 -20 0 -16 5 -33 9 -37 5 -4 6 -3 2 4 -5 9 -2 11 9 6 9
-3 12 -9 7 -12 -5 -3 -8 -18 -6 -33 1 -16 -2 -28 -7 -28 -6 0 -8 4 -4 9 3 5 1
12 -3 15 -11 6 -9 -40 1 -50 10 -10 9 -26 -2 -20 -12 8 -8 -37 4 -46 7 -5 7
-11 0 -15 -15 -11 -13 -32 3 -42 11 -7 11 -9 0 -14 -15 -5 -18 -63 -5 -84 4
-6 1 -14 -5 -16 -7 -3 -4 -6 7 -7 l20 -1 -20 -9 c-11 -5 -14 -9 -7 -9 7 -1 10
-6 7 -12 -13 -20 -12 -59 1 -59 22 0 25 -17 7 -36 -18 -18 -28 -48 -12 -38 5
3 9 0 9 -5 0 -6 -6 -11 -12 -11 -8 0 -9 -3 -3 -8 17 -12 41 -47 28 -38 -8 4
-13 2 -13 -4 0 -6 -5 -8 -12 -4 -10 6 -10 4 0 -8 10 -13 10 -17 0 -20 -8 -3
-6 -7 6 -11 11 -5 15 -3 10 5 -4 7 -3 8 4 4 17 -10 15 -29 -2 -23 -17 7 -30
-20 -14 -29 7 -4 8 -3 4 4 -5 8 -1 10 10 5 14 -5 13 -8 -6 -18 -18 -10 -19
-13 -7 -18 9 -3 18 -2 21 4 2 5 3 4 2 -3 -2 -7 -8 -13 -13 -13 -6 0 -15 -4
-20 -9 -5 -5 -3 -6 5 -2 6 4 12 2 12 -4 0 -6 6 -8 13 -4 7 4 9 3 4 -2 -5 -5
-13 -9 -18 -9 -5 0 -9 -4 -8 -10 0 -5 8 -9 17 -7 10 1 7 -4 -8 -12 -14 -9 -20
-15 -15 -16 6 0 11 -9 12 -20 1 -13 -2 -18 -10 -13 -8 4 -8 1 1 -9 9 -11 9
-18 2 -21 -6 -3 -5 -4 2 -3 7 2 13 8 13 13 0 6 2 14 5 16 3 3 5 -15 6 -39 0
-24 -3 -44 -7 -44 -4 0 -6 9 -4 20 4 21 -9 27 -20 10 -3 -5 -1 -10 6 -10 7 0
8 -5 3 -12 -17 -24 -1 -82 20 -72 6 3 0 -5 -14 -17 -22 -20 -23 -22 -5 -17 15
4 21 0 21 -13 0 -10 -4 -15 -8 -13 -4 3 -12 -5 -18 -16 -8 -14 -8 -20 0 -20 6
0 8 -5 4 -12 -11 -17 -13 -48 -3 -48 11 0 18 27 13 54 -2 14 -1 26 4 26 10 0
10 -96 -1 -106 -4 -5 -5 0 -1 11 7 18 6 19 -10 6 -17 -14 -16 -15 1 -25 10 -6
19 -20 21 -31 2 -17 0 -17 -11 4 -8 14 -17 19 -21 13 -3 -6 0 -13 6 -15 10 -4
10 -6 0 -6 -10 -1 -10 -4 0 -15 7 -8 15 -13 18 -11 3 2 6 -9 6 -23 1 -15 -1
-21 -3 -14 -3 6 -9 10 -14 7 -5 -4 -6 1 -3 9 3 9 2 16 -4 16 -15 0 -8 -26 13
-50 15 -16 16 -23 6 -33 -10 -9 -11 -8 -5 8 7 18 6 19 -10 6 -16 -14 -16 -15
1 -25 20 -12 24 -29 10 -43 -5 -4 -8 -3 -7 2 5 22 -1 36 -11 29 -8 -5 -8 -9 1
-14 6 -4 11 -10 11 -14 -3 -19 0 -27 7 -22 5 3 9 -1 9 -9 0 -12 -4 -12 -19 2
-24 22 -22 -3 2 -27 9 -8 11 -11 4 -7 -7 5 -15 3 -20 -4 -4 -8 -3 -9 4 -5 13
8 17 -6 5 -18 -11 -10 -12 -36 -2 -36 8 0 13 15 10 33 0 4 3 7 9 7 12 0 13
-10 0 -30 -5 -9 -5 -19 2 -28 8 -9 8 -16 -1 -25 -10 -9 -11 -8 -6 8 6 17 5 18
-5 5 -10 -13 -11 -12 -5 5 5 16 4 17 -6 8 -10 -10 -9 -15 1 -28 10 -12 10 -15
0 -15 -10 0 -10 -3 -1 -14 9 -11 9 -15 -1 -19 -10 -4 -10 -6 1 -6 11 -1 11 -4
0 -17 -10 -13 -10 -17 0 -24 10 -5 10 -9 2 -15 -9 -5 -9 -10 0 -21 9 -11 9
-14 -1 -14 -8 0 -4 -8 8 -19 24 -20 29 -41 10 -41 -8 0 -9 -3 -3 -8 6 -4 11
-25 12 -46 1 -25 -2 -34 -7 -26 -5 8 -6 18 -4 22 3 4 -4 8 -15 8 -12 0 -21 4
-21 9 0 5 -7 17 -16 25 -8 9 -11 16 -6 16 11 0 11 18 -1 37 -4 6 -3 15 3 18 8
5 8 11 0 20 -6 8 -10 22 -8 32 2 11 -3 18 -13 17 -11 -1 -15 6 -13 22 1 13 -3
24 -9 24 -8 0 -8 3 1 8 9 6 6 12 -12 20 -18 8 -23 16 -19 32 5 17 2 21 -13 18
-11 -2 -18 2 -16 10 1 6 -2 12 -7 12 -5 0 -7 10 -3 23 5 20 4 21 -13 7 -11 -9
-16 -10 -11 -2 4 6 3 12 -1 12 -5 0 -14 10 -22 21 -11 18 -11 23 1 31 9 6 8 8
-7 6 -15 -2 -19 2 -17 17 2 11 -1 16 -5 10 -4 -5 -14 -11 -22 -13 -12 -3 -12
-1 -1 15 8 10 10 15 6 11 -13 -11 -37 12 -29 26 4 6 0 5 -9 -2 -13 -10 -18
-10 -24 -1 -4 8 -3 9 4 5 7 -4 12 -2 12 3 0 10 -14 15 -32 12 -8 -1 -12 15 -9
32 1 5 -9 7 -21 5 -16 -2 -23 2 -22 14 1 10 -4 14 -12 11 -8 -3 -11 -10 -7
-16 3 -6 1 -7 -6 -3 -8 6 -9 12 -2 20 8 10 4 12 -19 11 -17 -1 -30 2 -30 6 0
4 -10 5 -22 2 -16 -3 -19 -2 -10 4 9 7 5 13 -15 22 -23 10 -26 10 -15 0 6 -7
12 -17 12 -23 0 -5 -8 0 -17 10 -18 19 -60 33 -49 16 3 -5 -6 -7 -19 -4 -28 5
-31 12 -12 32 6 8 -2 3 -18 -12 -20 -18 -35 -24 -44 -19 -9 6 -10 11 -2 15 6
4 11 2 11 -4 0 -6 5 -8 11 -4 8 4 7 9 -2 15 -8 5 -20 2 -30 -7 -22 -20 -34
-18 -18 4 13 16 12 16 -7 -1 -11 -9 -40 -18 -62 -20 -29 -1 -41 -6 -37 -14 2
-7 0 -13 -4 -13 -5 0 -11 7 -15 15 -3 8 -11 15 -18 14 -10 0 -10 -2 0 -6 18
-7 15 -16 -9 -31 -12 -8 -18 -9 -15 -4 7 12 -20 10 -31 -3 -4 -4 -2 -5 6 0 9
5 12 3 9 -6 -3 -8 -11 -13 -18 -11 -8 2 -10 -3 -6 -13 4 -13 2 -14 -14 -5 -11
6 -20 7 -19 3 4 -22 -2 -43 -10 -38 -6 3 -8 -4 -6 -16 3 -16 0 -20 -13 -17
-13 4 -18 -1 -19 -16 -5 -90 -4 -147 2 -166 5 -17 4 -21 -5 -15 -9 5 -11 4 -6
-4 4 -6 14 -10 21 -9 8 2 14 -1 15 -7 1 -5 7 -16 13 -24 9 -12 9 -13 -1 -7
-20 12 -14 -3 13 -30 14 -14 23 -29 20 -34 -3 -5 4 -11 15 -15 11 -3 19 -9 19
-13 -3 -21 3 -31 16 -25 9 3 15 2 14 -3 -4 -16 13 -64 21 -59 4 3 12 -1 18 -8
10 -12 12 -17 12 -38 0 -6 7 -9 15 -6 8 4 17 1 21 -5 4 -7 3 -8 -4 -4 -7 4
-12 1 -12 -8 0 -9 5 -15 11 -14 6 2 14 -4 16 -12 4 -12 3 -12 -5 -1 -7 10 -11
10 -17 1 -4 -7 1 -13 14 -17 19 -5 28 -32 22 -66 -1 -5 3 -6 8 -2 6 3 8 13 5
23 -5 14 -4 14 4 3 6 -8 8 -21 4 -29 -3 -10 -1 -13 6 -8 8 5 12 -3 13 -26 1
-18 1 -36 0 -40 0 -5 4 -8 9 -8 6 0 8 12 6 26 -4 19 -2 23 7 15 7 -5 12 -28
12 -49 0 -31 3 -39 15 -35 9 3 8 -1 -5 -12 l-20 -17 20 4 c12 2 19 -2 17 -9
-1 -7 3 -13 10 -13 9 0 9 -3 1 -11 -14 -14 -5 -49 14 -49 8 0 11 -4 8 -10 -3
-5 -1 -10 6 -10 7 0 4 -7 -7 -15 -12 -9 -13 -13 -4 -10 13 4 16 -2 15 -32 0
-21 3 -41 8 -44 5 -4 4 -17 -3 -30 -10 -23 -10 -23 4 -5 9 11 19 17 22 13 4
-4 1 -13 -6 -22 -11 -13 -10 -14 6 -8 16 6 17 5 6 -9 -9 -11 -10 -18 -2 -23 6
-3 8 -10 5 -15 -3 -5 4 -15 15 -23 11 -7 17 -17 13 -20 -3 -4 -12 1 -19 11
-12 15 -13 13 -9 -17 2 -18 7 -36 11 -40 4 -3 4 2 1 12 -4 11 -1 17 7 17 15 0
16 -16 2 -39 -6 -10 -5 -12 2 -7 12 7 17 -16 13 -56 -1 -10 3 -18 8 -18 6 0
11 -5 11 -11 0 -5 -4 -8 -8 -5 -5 3 -8 -5 -7 -16 1 -12 9 -24 19 -28 21 -7 23
-20 4 -31 -11 -7 -11 -9 1 -9 7 0 11 -6 8 -15 -4 -8 -2 -17 3 -20 6 -4 10 -11
10 -16 0 -6 -4 -7 -10 -4 -6 3 -7 -1 -4 -9 3 -9 10 -16 16 -16 5 0 7 3 5 7 -3
5 0 17 4 28 9 18 9 18 5 -2 -2 -13 0 -25 5 -28 4 -3 4 -16 -1 -30 -6 -15 -6
-27 0 -30 7 -4 6 -13 0 -25 -8 -15 -6 -19 13 -22 12 -2 22 -8 22 -15 0 -6 3
-15 7 -19 4 -4 3 -14 -4 -21 -9 -11 -9 -16 1 -23 10 -5 10 -9 2 -15 -9 -5 -9
-10 -1 -20 7 -8 9 -18 6 -23 -3 -5 1 -9 9 -9 8 0 11 5 8 11 -3 6 0 5 8 -2 12
-11 12 -14 0 -21 -8 -6 -9 -11 -3 -15 6 -4 9 -16 7 -27 -3 -17 0 -20 16 -16
16 4 18 3 8 -9 -6 -7 -15 -11 -20 -8 -16 9 -10 -3 8 -17 11 -10 14 -10 9 -2
-4 8 -2 13 4 13 6 0 10 -8 8 -18 -2 -9 3 -23 12 -30 8 -8 9 -11 3 -7 -9 4 -12
-2 -11 -19 1 -13 6 -22 10 -20 5 3 6 10 3 15 -4 5 -4 9 -1 9 3 0 10 -10 17
-21 8 -17 8 -20 -1 -14 -8 5 -11 3 -8 -6 3 -8 11 -13 17 -11 9 2 9 -3 2 -17
-8 -15 -7 -20 5 -25 8 -3 12 -2 9 3 -3 5 -1 12 4 15 5 4 8 -5 6 -19 -1 -14 1
-25 6 -25 4 0 6 -12 3 -27 -4 -23 -3 -25 11 -13 13 11 15 9 15 -9 0 -11 4 -21
10 -21 5 0 9 -3 9 -8 -3 -19 2 -33 11 -27 6 3 10 1 10 -5 0 -6 5 -8 10 -5 14
9 13 -8 -2 -23 -9 -9 -6 -12 14 -12 21 0 25 -4 21 -20 -4 -15 -1 -18 16 -15
23 4 28 -14 9 -34 -11 -10 -8 -10 15 -2 18 7 26 7 22 1 -3 -6 -1 -10 4 -10 6
0 10 -3 10 -7 -1 -5 -1 -14 0 -22 1 -11 4 -11 18 0 15 12 16 12 11 -7 -3 -13
0 -21 8 -22 8 -1 21 -3 29 -4 12 -1 12 -4 2 -17 -9 -12 -9 -13 1 -7 7 4 12 2
12 -4 0 -6 5 -8 10 -5 6 3 10 1 10 -5 0 -7 7 -7 23 1 19 10 20 10 11 -2 -9
-11 -9 -17 2 -27 9 -8 14 -9 14 -2 0 6 5 8 10 5 6 -4 8 -10 5 -15 -7 -11 27
-26 64 -29 14 -1 19 -7 16 -20 -3 -15 2 -19 26 -17 16 1 29 -3 29 -8 0 -6 5
-4 10 4 7 12 10 8 10 -15 0 -23 3 -27 10 -15 8 12 10 12 11 -5 0 -19 1 -19 8
-1 7 18 8 18 14 2 4 -10 12 -14 18 -10 8 4 9 3 5 -5 -4 -6 -12 -9 -17 -6 -5 4
-9 2 -9 -3 0 -5 11 -10 25 -11 48 -3 55 -4 55 -13 0 -4 -4 -8 -10 -8 -5 0 -10
-5 -10 -11 0 -5 4 -8 9 -5 15 10 40 -5 34 -20 -5 -13 8 -18 45 -17 8 1 9 -3 3
-11 -9 -11 11 -40 21 -30 3 2 4 -6 3 -19 -1 -12 -6 -21 -11 -19 -5 2 -8 9 -6
17 1 7 -1 16 -6 19 -5 3 -8 -11 -7 -30 1 -18 -3 -34 -8 -34 -7 0 -7 -4 0 -11
14 -14 5 -41 -11 -32 -7 5 -7 2 1 -8 15 -19 11 -60 -10 -92 -12 -19 -13 -27
-4 -37 9 -10 9 -11 0 -6 -8 5 -13 1 -13 -9 0 -10 5 -14 13 -9 10 6 10 4 0 -7
-7 -7 -13 -22 -13 -34 0 -12 -6 -27 -12 -34 -8 -9 -8 -11 -2 -8 7 4 14 0 17
-7 4 -10 0 -13 -14 -11 -11 2 -17 0 -14 -6 4 -5 0 -9 -7 -9 -10 0 -10 -2 0 -9
19 -12 19 -15 2 -37 -14 -18 -14 -18 4 -4 18 14 19 14 8 -6 -6 -12 -8 -24 -5
-28 3 -3 0 -6 -8 -6 -11 0 -11 -2 1 -10 12 -8 12 -10 1 -10 -10 0 -11 -3 -2
-14 7 -8 8 -17 3 -20 -5 -3 -8 -23 -6 -45 2 -24 -3 -46 -12 -57 -12 -15 -14
-15 -11 -3 3 9 2 22 -3 29 -5 7 -7 -3 -6 -26 1 -46 13 -67 29 -57 7 4 6 0 -2
-10 -7 -9 -12 -17 -10 -18 2 0 12 -2 23 -4 23 -4 46 -25 28 -25 -7 0 -12 -4
-12 -8 0 -4 9 -8 19 -8 11 0 17 5 14 10 -3 5 -1 6 5 2 7 -4 12 -14 12 -22 0
-12 19 -19 44 -15 5 1 6 -5 3 -13 -7 -19 9 -31 19 -15 5 8 3 9 -6 4 -9 -5 -11
-4 -6 4 4 6 12 9 17 5 5 -3 7 -10 4 -15 -4 -5 -1 -9 5 -9 6 0 8 -6 4 -12 -6
-10 -4 -10 7 -1 18 18 27 16 25 -3 -1 -16 9 -20 63 -29 24 -4 63 -38 55 -49
-2 -3 2 -2 8 4 9 7 16 4 26 -12 8 -14 11 -16 8 -5 -5 15 -3 16 17 5 28 -15 38
-16 59 -6 13 6 16 5 12 -7 -3 -8 -10 -12 -15 -9 -5 3 -9 0 -9 -5 0 -15 13 -14
29 1 11 11 13 10 8 -3 -4 -12 1 -15 21 -14 15 1 35 -2 45 -7 11 -6 17 -5 17 4
0 6 9 2 20 -10 12 -12 24 -22 28 -23 49 -7 60 -5 55 10 -4 15 -3 15 9 0 11
-14 62 -16 421 -16 287 0 407 3 407 11 0 6 5 4 10 -4 8 -12 10 -12 10 -1 0 10
3 11 13 3 8 -7 18 -7 27 -2 8 5 18 6 23 3 5 -3 19 5 33 18 15 14 24 18 24 9 0
-9 7 -7 23 7 21 20 53 21 41 2 -9 -15 3 -10 16 7 11 12 11 15 0 12 -7 -2 -15
4 -17 12 -3 9 -1 11 4 5 4 -5 13 -11 18 -12 6 -1 19 -5 30 -8 16 -6 17 -5 5 4
-13 9 -12 11 3 11 12 0 16 4 11 13 -5 8 -2 7 10 -2 14 -12 19 -12 29 -1 8 9 8
11 1 7 -7 -4 -14 -1 -17 7 -5 11 0 13 23 6 16 -4 31 -5 35 -2 4 4 12 7 18 7 5
0 12 6 15 13 2 8 -3 10 -15 6 -16 -5 -16 -4 -1 5 9 6 28 12 42 13 14 1 26 6
26 11 0 4 4 5 10 2 5 -3 7 0 4 8 -3 8 2 14 11 15 8 1 22 3 30 4 8 1 12 5 9 10
-3 5 -11 5 -17 1 -7 -4 -6 0 2 10 15 18 26 23 16 7 -3 -5 -2 -10 3 -10 6 0 12
7 16 15 3 8 9 15 13 14 20 -3 27 2 13 11 -13 8 -12 10 3 10 10 0 16 4 12 9 -3
5 -1 12 4 15 5 4 13 1 17 -5 5 -8 3 -9 -6 -4 -9 5 -11 4 -6 -4 4 -6 12 -9 17
-5 5 3 7 9 4 14 -3 5 3 11 14 15 10 3 18 11 17 18 0 7 3 13 7 14 12 4 37 31
37 41 0 6 7 13 16 16 10 4 14 12 10 22 -5 14 -4 14 7 5 12 -9 14 -7 12 13 -3
20 1 24 18 21 21 -4 21 -3 4 9 -12 10 -14 15 -6 18 7 2 10 11 6 21 -4 11 -13
15 -24 11 -15 -5 -15 -4 -3 4 8 6 18 8 22 6 4 -3 8 0 8 5 0 6 -4 11 -10 11 -5
0 -10 5 -10 11 0 5 5 7 12 3 7 -4 8 -3 4 4 -4 6 -13 9 -21 5 -8 -3 -15 0 -15
6 0 6 5 11 11 11 8 0 8 4 1 12 -5 7 -9 39 -8 71 1 32 -2 60 -6 63 -5 3 -5 10
-2 16 4 6 -3 5 -16 -2 -18 -10 -21 -10 -14 1 9 16 13 69 5 69 -3 0 -6 30 -6
66 1 36 -3 67 -7 70 -4 2 -5 -4 -3 -16 2 -11 0 -22 -5 -25 -4 -3 -7 3 -5 12 1
10 -2 24 -8 32 -14 17 -18 43 -6 35 5 -3 6 -10 3 -16 -5 -7 -2 -8 6 -3 9 5 11
4 6 -3 -5 -8 -2 -10 8 -6 9 3 16 10 16 16 0 5 -4 7 -9 3 -16 -9 -25 16 -10 27
11 7 9 8 -5 4 -15 -5 -17 -2 -13 14 3 11 0 20 -6 20 -7 0 -5 5 3 10 11 7 11
10 2 10 -10 0 -10 5 -2 20 6 11 7 20 1 20 -5 0 -12 7 -15 16 -3 8 -2 13 3 10
5 -3 12 1 15 10 4 10 2 13 -6 8 -7 -5 -9 0 -6 13 3 12 1 27 -4 34 -8 11 -9 11
-5 -2 3 -9 2 -21 -2 -28 -4 -7 -8 4 -9 24 -1 20 -5 41 -8 47 -5 7 -2 9 8 5 11
-4 15 -1 13 11 -2 9 -4 17 -5 17 -1 0 -3 8 -5 17 -2 11 2 15 11 11 9 -3 12 2
9 17 -3 16 0 20 11 16 8 -3 13 -2 10 3 -3 5 1 11 9 15 10 3 13 16 11 36 -2 16
0 30 4 30 4 0 6 11 5 24 -2 15 6 32 21 45 26 22 30 36 14 46 -13 8 -3 25 13
21 7 -1 9 -1 5 1 -5 3 -8 9 -8 14 0 6 6 7 13 3 7 -5 6 0 -3 11 -12 15 -12 17
-1 10 11 -6 13 -2 9 19 -4 18 -1 29 8 33 8 3 14 9 14 15 0 5 -4 7 -9 4 -5 -3
-8 10 -8 28 1 19 5 33 9 30 4 -3 5 -11 2 -18 -3 -8 -1 -17 5 -21 7 -4 8 0 4
11 -4 10 -2 15 4 11 5 -3 10 0 10 8 0 8 -5 15 -10 15 -5 0 -4 7 3 15 7 8 9 15
4 15 -4 0 -3 5 4 12 8 8 8 17 0 31 -9 17 -8 19 6 14 9 -4 16 -2 16 3 0 6 -7
10 -16 10 -8 0 -13 4 -10 9 3 5 16 7 29 5 22 -5 22 -4 1 5 -27 12 -38 28 -19
28 8 0 11 -5 8 -10 -3 -6 -2 -7 3 -4 15 9 11 72 -4 69 -8 -1 -11 2 -7 7 3 6
13 7 23 4 13 -5 14 -3 5 7 -7 7 -8 21 -4 34 4 11 7 42 7 68 -1 35 2 44 10 37
8 -7 15 -6 20 2 4 7 3 9 -2 6 -6 -3 -15 3 -22 13 -9 15 -8 21 6 32 15 11 16
11 4 -3 -10 -14 -10 -18 1 -22 10 -4 13 2 11 19 -1 13 3 24 9 24 8 0 7 3 -2 9
-9 6 -10 10 -2 16 7 4 9 11 3 18 -10 14 -10 67 1 84 4 6 2 15 -4 19 -7 4 -9 3
-5 -4 7 -11 -20 -11 -29 1 -3 4 -2 5 2 2 12 -9 32 16 26 32 -5 12 -3 14 8 8 8
-5 5 2 -6 15 -11 13 -15 20 -9 17 15 -9 27 20 12 29 -7 4 -8 3 -4 -4 5 -8 2
-10 -8 -6 -13 5 -12 9 6 23 15 12 18 20 10 25 -7 4 -12 2 -12 -4 0 -6 -5 -8
-10 -5 -6 4 -4 12 5 21 8 8 13 25 11 37 -2 12 2 28 8 36 8 11 8 13 0 8 -7 -4
-15 0 -18 9 -3 8 -2 12 4 9 6 -4 7 1 3 10 -3 10 0 21 8 26 8 5 9 9 3 9 -6 0
-10 11 -9 25 3 22 1 24 -18 13 -22 -11 -22 -11 -3 11 11 11 15 21 10 21 -5 0
-3 4 4 9 11 7 11 9 -1 14 -12 4 -15 0 -12 -15 3 -11 1 -18 -2 -14 -12 12 -11
126 1 119 6 -4 4 1 -4 11 -16 20 -22 46 -11 46 9 0 7 43 -4 60 -7 11 -10 10
-17 -6 -8 -17 -8 -17 -4 3 2 12 -1 24 -8 27 -6 3 0 4 14 1 14 -3 19 -2 12 1
-6 3 -9 11 -6 16 5 7 2 8 -6 3 -10 -6 -12 -4 -7 8 4 12 2 14 -11 10 -14 -6
-15 -4 -5 8 10 12 10 18 0 29 -6 7 -7 10 -1 7 6 -4 10 3 9 15 -1 12 -8 24 -16
26 -11 3 -11 1 1 -7 13 -9 13 -11 -2 -11 -21 0 -23 11 -5 29 10 11 10 13 0 7
-8 -5 -13 -1 -13 9 0 10 -5 13 -12 9 -9 -5 -9 -2 1 9 11 14 11 17 0 18 -8 1
-18 1 -23 0 -5 -1 -6 5 -3 14 8 18 -1 45 -15 45 -5 0 -6 -4 -3 -10 3 -5 1 -10
-5 -10 -6 0 -10 8 -8 17 2 10 -3 18 -9 19 -7 1 -17 2 -22 3 -5 0 -11 15 -14
31 -4 17 -12 30 -18 30 -8 0 -8 -4 0 -14 9 -11 9 -16 0 -22 -7 -4 -9 -3 -6 3
4 6 0 16 -8 23 -8 7 -12 17 -8 24 4 6 -1 5 -11 -3 -14 -12 -19 -12 -29 -1 -10
10 -9 12 5 7 12 -4 15 -2 12 8 -3 7 -13 12 -22 10 -9 -1 -23 3 -31 9 -11 8
-13 8 -7 -1 5 -9 2 -11 -8 -7 -9 3 -13 10 -10 15 3 5 0 9 -6 9 -6 0 -9 4 -6 8
6 11 -45 9 -63 -3 -9 -5 -12 -4 -8 2 4 7 -6 11 -26 12 -81 3 -81 3 -66 12 13
8 6 11 -17 8 -4 0 -11 5 -16 13 -7 9 -8 5 -4 -12 4 -22 4 -23 -8 -8 -7 10 -16
15 -19 11 -4 -3 -7 -1 -7 6 0 8 -7 11 -15 7 -8 -3 -22 -3 -31 1 -13 5 -13 7
-2 14 9 6 7 9 -9 10 -13 1 -27 3 -33 4 -5 1 -13 3 -16 4 -4 0 -1 8 6 16 11 13
10 14 -3 10 -8 -4 -18 -1 -23 6 -5 8 -3 10 6 4 9 -5 11 -4 6 4 -6 9 -11 9 -24
-1 -12 -10 -14 -10 -8 0 4 6 2 12 -3 12 -6 0 -11 -5 -11 -12 0 -6 -3 -8 -6 -5
-4 4 -1 13 6 22 14 17 1 21 -18 5 -6 -6 -10 -7 -7 -3 3 3 -2 15 -11 25 -13 13
-20 15 -30 7 -10 -8 -12 -6 -9 11 4 22 4 22 -15 5 -19 -17 -21 -17 -38 -2 -10
10 -22 14 -25 10 -4 -3 -7 -1 -7 5 0 5 6 12 13 15 6 3 2 4 -10 4 -12 -1 -19
-6 -16 -12 3 -5 0 -5 -7 2 -11 10 -16 9 -26 -5 -12 -15 -12 -14 -7 7 5 21 4
22 -16 12 -13 -7 -21 -8 -21 -2 0 7 -9 7 -25 1 -14 -5 -25 -6 -25 -2 0 4 -16
7 -35 7 -19 0 -35 -3 -35 -6 0 -3 -16 -5 -35 -4 -19 1 -32 -2 -29 -6 2 -4 13
-6 24 -4 11 2 22 0 24 -4 3 -4 -10 -7 -29 -6 -19 1 -35 -2 -35 -6 0 -5 -7 -5
-17 -2 -12 5 -14 3 -8 -8 6 -9 2 -8 -11 3 -15 13 -23 14 -38 6 -17 -9 -18 -8
-13 11 3 11 1 19 -3 16 -5 -3 -11 1 -13 7 -3 7 -6 4 -6 -7 -1 -11 -5 -16 -9
-10 -4 6 -16 15 -27 21 -11 7 -19 19 -17 30 3 16 2 16 -14 3 -11 -8 -15 -9
-10 -1 4 7 2 12 -4 12 -6 0 -8 6 -4 13 4 6 -3 3 -17 -8 -13 -11 -19 -13 -12
-6 9 11 9 17 -2 27 -16 17 -29 18 -19 3 5 -8 1 -8 -14 0 -15 8 -22 8 -26 -2
-3 -6 -3 -1 1 13 5 23 5 24 -12 10 -13 -10 -16 -11 -11 -2 5 9 3 13 -5 11 -28
-3 -40 1 -34 14 4 6 0 4 -7 -5 -13 -15 -15 -15 -26 0 -10 15 -11 15 -5 -3 4
-14 3 -17 -5 -10 -15 14 -94 6 -85 -8 4 -6 1 -7 -8 -2 -22 14 -48 13 -54 -2
-2 -8 -9 -12 -14 -8 -5 3 -13 0 -17 -6 -5 -8 -3 -9 6 -4 9 5 11 4 6 -3 -5 -8
-13 -9 -26 -2 -15 8 -17 6 -13 -9 3 -10 -1 -22 -8 -26 -8 -5 -10 -4 -5 3 5 8
2 10 -8 6 -18 -7 -20 -16 -6 -30 6 -6 3 -10 -9 -10 -11 0 -17 5 -13 11 3 5 -2
4 -11 -3 -9 -8 -20 -11 -26 -8 -5 3 -12 0 -14 -6 -6 -14 -8 2 -11 70 -2 23 0
42 4 42 3 0 6 9 6 20 0 11 -4 20 -7 20 -4 0 -4 13 1 29 4 15 4 34 0 42 -5 7
-6 17 -3 22 10 16 9 67 -1 71 -7 3 -8 7 -1 13 12 10 13 33 2 51 -8 12 -7 13
12 16 5 0 13 5 18 10 4 5 3 6 -4 2 -7 -4 -17 2 -23 14 -8 15 -8 20 1 20 8 0 8
4 -1 15 -7 8 -10 16 -6 16 3 1 10 2 15 3 5 0 13 5 18 10 4 5 3 6 -4 2 -7 -4
-17 2 -23 14 -6 11 -7 20 -2 20 5 0 9 7 9 15 0 8 -5 15 -10 15 -5 0 -3 8 4 17
8 9 9 14 3 10 -7 -4 -9 8 -4 39 4 24 3 47 -2 50 -5 3 -4 12 2 19 8 9 8 15 0
20 -6 4 -7 12 -1 23 6 11 4 20 -7 30 -10 7 -12 11 -6 8 13 -6 13 92 0 113 -6
10 -6 12 2 7 7 -4 12 -1 12 8 0 8 -6 17 -12 19 -8 3 -5 6 5 6 10 1 16 5 13 9
-9 16 -15 122 -6 127 5 3 6 16 2 28 -5 12 -8 33 -7 47 1 14 -6 34 -14 45 -15
18 -15 19 0 7 15 -11 16 -7 14 40 -2 29 -6 63 -9 76 -3 13 -1 20 5 17 5 -4 6
-11 3 -17 -4 -7 -2 -8 4 -4 7 4 8 15 3 29 -4 12 -7 43 -7 68 1 36 -2 45 -13
41 -9 -3 -12 -1 -7 6 4 7 3 12 -2 12 -5 0 -9 7 -9 16 0 15 1 15 12 0 7 -9 16
-16 21 -16 4 0 3 5 -4 12 -16 16 -15 31 1 22 9 -6 9 -5 0 7 -10 12 -10 18 0
29 10 12 9 12 -5 1 -10 -7 -15 -17 -12 -22 9 -16 -3 -10 -17 8 -9 10 -9 14 -2
10 8 -5 12 0 11 15 -2 39 2 49 13 42 8 -4 7 -9 -2 -15 -10 -6 -10 -9 -2 -9 16
0 26 17 13 25 -6 4 -7 11 -4 17 5 7 2 8 -6 3 -18 -11 -30 14 -20 41 5 12 5 35
1 51 -9 33 -4 55 12 47 7 -3 3 2 -8 11 -17 14 -18 17 -5 25 8 5 10 10 4 10 -7
0 -14 9 -17 20 -3 11 -2 18 2 15 5 -2 8 9 7 24 -1 22 -4 27 -13 19 -14 -11
-17 -5 -13 26 1 10 -4 23 -12 27 -10 7 -10 9 0 9 6 0 12 5 12 11 0 6 -7 9 -15
5 -8 -3 -15 -1 -15 4 0 6 7 10 15 10 8 0 15 4 15 9 0 5 -12 8 -27 6 -23 -2
-25 -1 -12 8 15 10 15 12 -5 29 -19 16 -19 17 -2 11 14 -5 17 -3 12 6 -5 7
-17 11 -27 8 -15 -4 -19 0 -19 19 0 15 -6 24 -15 24 -8 0 -15 5 -15 10 0 6 -5
10 -11 10 -5 0 -7 -4 -4 -10 3 -5 1 -10 -4 -10 -14 0 -14 13 0 27 8 8 4 11
-14 10 -14 -1 -23 -5 -21 -8 1 -3 -3 -6 -11 -6 -8 0 -12 4 -9 9 3 4 -4 8 -15
8 -12 0 -21 4 -21 10 0 5 8 7 18 4 13 -5 14 -4 3 4 -8 6 -21 8 -29 4 -11 -4
-13 -1 -7 8 6 9 4 11 -4 5 -7 -4 -46 -7 -87 -7 -58 0 -76 -3 -85 -16 -10 -16
-10 -16 -5 0 3 10 0 20 -6 24 -6 4 -8 3 -5 -2z m-237 -391 c2 -10 -2 -23 -8
-30 -6 -7 -6 -13 -1 -13 14 0 10 -97 -4 -110 -10 -7 -10 -7 -3 2 13 16 13 31
-1 22 -8 -4 -8 0 0 15 7 12 9 27 4 34 -10 17 -11 47 -1 53 4 3 8 10 8 15 0 6
-6 7 -12 3 -10 -6 -10 -5 -1 8 7 8 11 18 8 21 -3 4 -2 5 2 2 4 -3 8 -13 9 -22z
m-5 -266 c-10 -9 -11 -8 -5 6 3 10 9 15 12 12 3 -3 0 -11 -7 -18z m725 -122
c1 -8 -2 -15 -6 -15 -5 0 -8 9 -7 20 1 21 10 18 13 -5z m-721 -125 c3 -5 1
-10 -4 -10 -6 0 -11 5 -11 10 0 6 2 10 4 10 3 0 8 -4 11 -10z m725 6 c0 -3 -4
-8 -10 -11 -5 -3 -10 -1 -10 4 0 6 5 11 10 11 6 0 10 -2 10 -4z m-725 -66 c3
-5 1 -10 -4 -10 -6 0 -11 5 -11 10 0 6 2 10 4 10 3 0 8 -4 11 -10z m722 -112
c-3 -8 -6 -5 -6 6 -1 11 2 17 5 13 3 -3 4 -12 1 -19z m-719 -193 c-3 -3 -9 2
-12 12 -6 14 -5 15 5 6 7 -7 10 -15 7 -18z m0 -280 c-3 -3 -9 2 -12 12 -6 14
-5 15 5 6 7 -7 10 -15 7 -18z m-3 -132 c-2 -10 -4 -19 -4 -21 -1 -2 -6 0 -11
3 -8 5 -7 11 1 21 15 18 18 18 14 -3z m925 -377 c0 -3 -4 -8 -10 -11 -5 -3
-10 -1 -10 4 0 6 5 11 10 11 6 0 10 -2 10 -4z m915 -146 c3 -5 1 -10 -4 -10
-6 0 -11 5 -11 10 0 6 2 10 4 10 3 0 8 -4 11 -10z m-1838 -110 c1 -11 -2 -20
-5 -20 -4 0 -8 9 -9 20 -1 11 2 20 5 20 4 0 8 -9 9 -20z m0 -60 c2 -11 -2 -20
-9 -20 -9 0 -9 -3 0 -12 15 -15 16 -42 2 -33 -6 4 -8 10 -5 15 3 5 1 12 -5 15
-8 5 -8 11 0 20 8 9 8 15 0 20 -6 3 -8 11 -4 16 8 13 17 4 21 -21z m-84 -5
c-3 -9 -8 -14 -10 -11 -3 3 -2 9 2 15 9 16 15 13 8 -4z m2356 -8 c0 -9 -2 -8
-6 1 -2 6 -10 9 -15 6 -7 -4 -8 -2 -4 5 9 13 26 5 25 -12z m-2853 -643 c1 -9
0 -13 -4 -10 -3 4 -7 14 -8 22 -1 9 0 13 4 10 3 -4 7 -14 8 -22z m3221 -44
c-1 -11 -5 -20 -9 -20 -10 0 -10 4 -2 24 8 22 13 20 11 -4z m-3142 -280 c3 -5
-1 -10 -10 -10 -9 0 -13 5 -10 10 3 6 8 10 10 10 2 0 7 -4 10 -10z m3146 -127
c12 -14 12 -16 0 -8 -11 6 -13 3 -9 -13 4 -12 0 -23 -7 -26 -10 -4 -11 2 -5
24 4 16 6 31 2 34 -3 3 -3 6 0 6 3 0 12 -8 19 -17z m-41 -297 c0 -2 -7 -7 -16
-10 -8 -3 -12 -2 -9 4 6 10 25 14 25 6z m-150 -546 c-8 -5 -18 -6 -24 -3 -5 4
-1 10 10 13 24 9 34 2 14 -10z m-2353 -75 c0 -8 -4 -12 -9 -9 -5 3 -6 10 -3
15 9 13 12 11 12 -6z m298 -185 c3 -5 1 -10 -4 -10 -6 0 -11 5 -11 10 0 6 2
10 4 10 3 0 8 -4 11 -10z m2101 -372 c4 -7 3 -8 -4 -4 -7 4 -12 2 -12 -5 0 -7
-3 -10 -6 -6 -6 5 3 27 11 27 2 0 7 -5 11 -12z m-2131 -108 c3 -6 -1 -7 -9 -4
-18 7 -21 14 -7 14 6 0 13 -4 16 -10z m567 -567 c-6 -3 -9 -9 -6 -15 4 -6 -2
-5 -15 1 -27 15 -27 16 7 17 15 1 21 -1 14 -3z m972 -5 c-3 -5 -13 -7 -21 -4
-9 4 -22 1 -29 -5 -9 -7 -14 -8 -14 -1 0 12 17 19 47 19 13 0 20 -4 17 -9z"/>
<path d="M2120 5475 c-10 -12 -10 -15 2 -15 8 0 15 7 15 15 0 8 -1 15 -2 15
-2 0 -8 -7 -15 -15z"/>
<path d="M2075 5340 c3 -5 8 -10 11 -10 2 0 4 5 4 10 0 6 -5 10 -11 10 -5 0
-7 -4 -4 -10z"/>
<path d="M2805 5140 c-3 -5 -1 -10 4 -10 6 0 11 5 11 10 0 6 -2 10 -4 10 -3 0
-8 -4 -11 -10z"/>
<path d="M2075 4450 c4 -6 11 -8 16 -5 14 9 11 15 -7 15 -8 0 -12 -5 -9 -10z"/>
<path d="M2870 3560 c0 -5 5 -10 11 -10 5 0 7 5 4 10 -3 6 -8 10 -11 10 -2 0
-4 -4 -4 -10z"/>
<path d="M3390 3551 c0 -6 4 -13 10 -16 6 -3 7 1 4 9 -7 18 -14 21 -14 7z"/>
<path d="M1880 3526 c0 -2 8 -10 18 -17 15 -13 16 -12 3 4 -13 16 -21 21 -21
13z"/>
<path d="M3866 3495 c4 -8 11 -15 16 -15 6 0 5 6 -2 15 -7 8 -14 15 -16 15 -2
0 -1 -7 2 -15z"/>
<path d="M4240 3336 c0 -3 9 -10 20 -16 11 -6 20 -8 20 -6 0 3 -9 10 -20 16
-11 6 -20 8 -20 6z"/>
<path d="M2077 3199 c7 -7 15 -10 18 -7 3 3 -2 9 -12 12 -14 6 -15 5 -6 -5z"/>
<path d="M4550 3190 c0 -13 18 -22 24 -11 3 5 -1 11 -9 15 -8 3 -15 1 -15 -4z"/>
<path d="M2056 3182 c-7 -12 10 -35 28 -38 9 -1 14 2 10 7 -3 5 -10 6 -16 3
-7 -5 -9 -1 -5 9 6 17 -8 33 -17 19z"/>
<path d="M1619 2153 c-13 -16 -12 -17 4 -4 9 7 17 15 17 17 0 8 -8 3 -21 -13z"/>
<path d="M1645 2050 c-3 -6 1 -7 9 -4 18 7 21 14 7 14 -6 0 -13 -4 -16 -10z"/>
<path d="M4600 1450 c-9 -6 -10 -10 -3 -10 6 0 15 5 18 10 8 12 4 12 -15 0z"/>
<path d="M2475 870 c3 -5 8 -10 11 -10 2 0 4 5 4 10 0 6 -5 10 -11 10 -5 0 -7
-4 -4 -10z"/>
<path d="M2483 843 c4 -3 1 -13 -6 -22 -11 -14 -10 -14 5 -2 16 12 16 31 1 31
-4 0 -3 -3 0 -7z"/>
<path d="M4596 762 c-3 -5 1 -9 9 -9 8 0 15 4 15 9 0 4 -4 8 -9 8 -6 0 -12 -4
-15 -8z"/>
<path d="M2406 438 c3 -4 9 -8 15 -8 5 0 9 4 9 8 0 5 -7 9 -15 9 -8 0 -12 -4
-9 -9z"/>
<path d="M2690 131 c0 -5 7 -11 15 -15 8 -3 15 -1 15 3 0 5 -7 11 -15 15 -8 3
-15 1 -15 -3z"/>
<path d="M4085 50 c-3 -5 -1 -10 4 -10 6 0 11 5 11 10 0 6 -2 10 -4 10 -3 0
-8 -4 -11 -10z"/>
</g>
</svg>
